<svg aria-hidden="true" style="position: absolute; width: 0; height: 0; overflow: hidden;" version="1.1" xmlns="http://www.w3.org/2000/svg" xmlns:xlink="http://www.w3.org/1999/xlink">
<defs>

<symbol id="icon-check" clip-rule="evenodd" fill-rule="evenodd" stroke-linejoin="round" stroke-miterlimit="2" viewBox="0 0 24 24" xmlns="http://www.w3.org/2000/svg"><path d="m11.998 2.005c5.517 0 9.997 4.48 9.997 9.997 0 5.518-4.48 9.998-9.997 9.998-5.518 0-9.998-4.48-9.998-9.998 0-5.517 4.48-9.997 9.998-9.997zm0 1.5c-4.69 0-8.498 3.807-8.498 8.497s3.808 8.498 8.498 8.498 8.497-3.808 8.497-8.498-3.807-8.497-8.497-8.497zm-5.049 8.886 3.851 3.43c.142.128.321.19.499.19.202 0 .405-.081.552-.242l5.953-6.509c.131-.143.196-.323.196-.502 0-.41-.331-.747-.748-.747-.204 0-.405.082-.554.243l-5.453 5.962-3.298-2.938c-.144-.127-.321-.19-.499-.19-.415 0-.748.335-.748.746 0 .205.084.409.249.557z" fill-rule="nonzero"/></symbol>

<symbol id="icon-xmark" xmlns="http://www.w3.org/2000/svg" viewBox="0 0 24 24"><path d="M12 2c5.514 0 10 4.486 10 10s-4.486 10-10 10-10-4.486-10-10 4.486-10 10-10zm0-2c-6.627 0-12 5.373-12 12s5.373 12 12 12 12-5.373 12-12-5.373-12-12-12zm5 15.538l-3.592-3.548 3.546-3.587-1.416-1.403-3.545 3.589-3.588-3.543-1.405 1.405 3.593 3.552-3.547 3.592 1.405 1.405 3.555-3.596 3.591 3.55 1.403-1.416z"/></symbol>

</defs>
</svg>