<?xml version="1.0" encoding="utf-8"?>
<!-- Generator: Adobe Illustrator 24.2.3, SVG Export Plug-In . SVG Version: 6.00 Build 0)  -->
<svg version="1.1" id="Layer_1" xmlns="http://www.w3.org/2000/svg" xmlns:xlink="http://www.w3.org/1999/xlink" x="0px" y="0px"
	 viewBox="0 0 512 512" style="enable-background:new 0 0 512 512;" xml:space="preserve">
<style type="text/css">
	.st0{fill:#E6A329;}
	.st1{fill:#F1BF22;}
	.st2{fill:#FFFFFF;}
	.st3{fill:#EBEBEB;}
</style>
<path class="st0" d="M482.1,0H30l42.6,459.6L256,512l183.5-52.4L482.1,0z"/>
<path class="st1" d="M256,37.4v434.9l149-42l36.2-392.9L256,37.4z"/>
<path class="st2" d="M374,93.8H145.6l-16.1,172l0.6-1.2h194.4l-6.3,73.1L256,355.5l-62.7-18.4l-4-43.7h-57l8.1,88L256,414.2
	l115.6-32.8l16.1-172.6H181.3l2.9-57.5h143.2l1.7,32.8h57.5L374,93.8z"/>
<path class="st3" d="M256,93.8H145.6l-16.1,172l0.6-1.2h126v-56.4h-66.7l2.9-57.5H256C256,150.7,256,93.8,256,93.8z M189.3,293.4
	h-57l8.1,88L256,414.2v-58.7l-62.7-18.4L189.3,293.4z"/>
</svg>
